<?xml version="1.0" encoding="utf-8"?>
<svg version="1.1" xmlns="http://www.w3.org/2000/svg" width="640" height="256">
<style type="text/css">
	.st0{fill:#3A2D72;}
	.st1{fill:#C45814;}
	.st2{fill:#F3DED0;}
	.st3{fill:#FFFFFF;}
	.st4{fill:#3E2C70;}
	.st5{fill:#1D1D1B;}
</style>
<rect x="76.59" y="98.38" class="st0" width="18.11" height="45.77"/>
<polygon class="st0" points="63.07,104.98 85.64,65.9 108.21,104.98"/>
<rect x="18.37" y="65.9" class="st1" width="18.11" height="45.77"/>
<polygon class="st1" points="49.99,105.06 27.42,144.15 4.85,105.06"/>
<path class="st0" d="M132.69,216.17c0,2.12,2.2,3.01,3.79,3.01h225.96c2.31,0,6.49,1.22,7.98,2.38c1.49-1.16,5.6-2.38,7.92-2.38
H604.4c1.58,0,3.79-0.89,3.79-3.01h2.88c0,4.28-3.66,5.77-6.99,5.77H378.55c-1.74,0-6.94,0.82-6.94,4.48h-2.41
c0-3.16-5.26-4.48-7-4.48H136.79c-3.33,0-6.99-1.49-6.99-5.77H132.69z"/>
<polygon class="st2" points="543.77,64.15 129.8,145.16 610.96,145.16 640,64.15"/>
<rect x="158.84" class="st0" width="384.93" height="64.15"/>
<rect x="129.91" y="145.16" class="st0" width="240.58" height="64.15"/>
<rect x="370.49" y="145.16" class="st1" width="240.58" height="64.15"/>
<rect x="543.77" class="st1" width="96.23" height="64.15"/>
<path class="st3" d="M231.79,27.54l-1.4,1.9c-0.66-0.5-1.22-0.77-1.9-0.77c-1.24,0-1.97,0.88-1.97,3.87c0,2.9,0.81,3.64,1.97,3.64
c0.66,0,1.15-0.25,1.83-0.72l1.49,1.99c-0.95,0.86-2.1,1.4-3.55,1.4c-3.3,0-5.32-2.35-5.32-6.29c0-4,2.04-6.49,5.27-6.49
C229.66,26.07,230.82,26.56,231.79,27.54z"/>
<path class="st3" d="M242.4,32.47c0,4.07-1.97,6.38-5.18,6.38c-3.19,0-5.18-2.13-5.18-6.4c0-4.12,1.97-6.38,5.18-6.38
C240.41,26.07,242.4,28.17,242.4,32.47z M235.57,32.44c0,2.92,0.52,3.89,1.65,3.89c1.13,0,1.67-1.02,1.67-3.87
c0-2.9-0.54-3.87-1.67-3.87C236.11,28.6,235.57,29.62,235.57,32.44z"/>
<path class="st3" d="M253.38,29.71v8.75h-3.42v-8.37c0-1.09-0.29-1.43-0.79-1.43c-0.57,0-1.09,0.54-1.61,1.45v8.35h-3.42V26.45
h2.99l0.25,1.43c0.81-1.18,1.76-1.81,3.1-1.81C252.29,26.07,253.38,27.4,253.38,29.71z"/>
<path class="st3" d="M262.27,37.9c-0.81,0.66-1.99,0.95-2.94,0.95c-2.44,0-3.57-1.52-3.57-3.78v-6.24h-1.33v-2.37h1.33v-2.62
l3.42-0.38v3.01h2.37l-0.36,2.37h-2.01v6.2c0,0.75,0.32,1.11,0.93,1.11c0.36,0,0.66-0.11,1.04-0.32L262.27,37.9z"/>
<path class="st3" d="M270.1,26.29l-0.56,3.28c-0.29-0.09-0.57-0.14-0.91-0.14c-1.27,0-1.74,1.09-2.08,2.69v6.33h-3.42V26.45h2.99
l0.25,2.06c0.54-1.52,1.43-2.4,2.71-2.4C269.47,26.11,269.79,26.18,270.1,26.29z"/>
<path class="st3" d="M280.81,32.47c0,4.07-1.97,6.38-5.18,6.38c-3.19,0-5.18-2.13-5.18-6.4c0-4.12,1.97-6.38,5.18-6.38
C278.82,26.07,280.81,28.17,280.81,32.47z M273.98,32.44c0,2.92,0.52,3.89,1.65,3.89c1.13,0,1.67-1.02,1.67-3.87
c0-2.9-0.54-3.87-1.67-3.87C274.52,28.6,273.98,29.62,273.98,32.44z"/>
<path class="st3" d="M282.44,35.68v-14l3.41-0.36v14.2c0,0.41,0.16,0.61,0.52,0.61c0.18,0,0.34-0.02,0.45-0.07l0.63,2.35
c-0.45,0.23-1.18,0.43-1.95,0.43C283.57,38.85,282.44,37.63,282.44,35.68z"/>
<path class="st3" d="M288.42,35.68v-14l3.41-0.36v14.2c0,0.41,0.16,0.61,0.52,0.61c0.18,0,0.34-0.02,0.45-0.07l0.63,2.35
c-0.45,0.23-1.18,0.43-1.95,0.43C289.55,38.85,288.42,37.63,288.42,35.68z"/>
<path class="st3" d="M303.71,33.46h-6.42c0.18,2.29,0.97,2.87,2.17,2.87c0.93,0,1.65-0.32,2.53-1l1.38,1.86
c-1,0.95-2.37,1.65-4.16,1.65c-3.55,0-5.34-2.47-5.34-6.31c0-3.8,1.72-6.47,5-6.47c2.99,0,4.91,2.08,4.91,6.15
C303.78,32.6,303.74,33.12,303.71,33.46z M300.46,31.25c-0.02-1.92-0.41-2.92-1.54-2.92c-0.95,0-1.52,0.68-1.63,3.1h3.17V31.25z"/>
<path class="st3" d="M315.01,21.68v16.78h-3.03l-0.14-1.31c-0.61,0.95-1.49,1.7-2.9,1.7c-2.65,0-3.98-2.35-3.98-6.4
c0-3.89,1.74-6.38,4.25-6.38c1.02,0,1.81,0.45,2.37,1.13v-5.88L315.01,21.68z M311.59,35.11v-5.57c-0.41-0.61-0.81-0.97-1.4-0.97
c-0.97,0-1.7,0.95-1.7,3.87c0,3.14,0.66,3.89,1.54,3.89C310.69,36.34,311.16,35.91,311.59,35.11z"/>
<path class="st3" d="M328.68,26.29l-0.57,3.28c-0.29-0.09-0.57-0.14-0.9-0.14c-1.27,0-1.74,1.09-2.08,2.69v6.33h-3.41V26.45h2.99
l0.25,2.06c0.54-1.52,1.43-2.4,2.71-2.4C328.04,26.11,328.36,26.18,328.68,26.29z"/>
<path class="st3" d="M338.86,33.46h-6.42c0.18,2.29,0.97,2.87,2.17,2.87c0.93,0,1.65-0.32,2.53-1l1.38,1.86
c-1,0.95-2.38,1.65-4.16,1.65c-3.55,0-5.34-2.47-5.34-6.31c0-3.8,1.72-6.47,5-6.47c2.99,0,4.91,2.08,4.91,6.15
C338.93,32.6,338.88,33.12,338.86,33.46z M335.6,31.25c-0.02-1.92-0.41-2.92-1.54-2.92c-0.95,0-1.52,0.68-1.63,3.1h3.17V31.25z"/>
<path class="st3" d="M348.25,27.54l-1.24,1.85c-0.82-0.54-1.58-0.88-2.4-0.88c-0.79,0-1.27,0.38-1.27,1.02
c0,0.68,0.36,0.99,2.15,1.7c2.01,0.75,3.12,1.72,3.12,3.71c0,2.44-2.01,3.91-4.73,3.91c-1.81,0-3.37-0.68-4.43-1.76l1.61-1.79
c0.79,0.63,1.72,1.13,2.67,1.13c0.88,0,1.4-0.45,1.4-1.2c0-0.84-0.36-1.2-2.13-1.85c-2.15-0.81-3.03-1.86-3.03-3.6
c0-2.1,1.58-3.71,4.34-3.71C345.9,26.07,347.26,26.63,348.25,27.54z"/>
<path class="st3" d="M359.41,33.46h-6.42c0.18,2.29,0.97,2.87,2.17,2.87c0.93,0,1.65-0.32,2.53-1l1.38,1.86
c-1,0.95-2.38,1.65-4.16,1.65c-3.55,0-5.34-2.47-5.34-6.31c0-3.8,1.72-6.47,5-6.47c2.99,0,4.91,2.08,4.91,6.15
C359.48,32.6,359.43,33.12,359.41,33.46z M356.15,31.25c-0.02-1.92-0.41-2.92-1.54-2.92c-0.95,0-1.52,0.68-1.63,3.1h3.17V31.25z"/>
<path class="st3" d="M370.3,36.54l-0.7,2.24c-1.29-0.11-2.15-0.54-2.6-1.65c-0.81,1.24-1.94,1.72-3.14,1.72
c-2.08,0-3.39-1.49-3.39-3.76c0-2.6,1.72-4.03,4.96-4.03h0.88v-0.61c0-1.47-0.43-1.92-1.63-1.92c-0.79,0-1.67,0.23-2.71,0.59
l-0.75-2.15c1.29-0.59,2.8-0.91,4.1-0.91c2.94,0,4.32,1.36,4.32,4.21v4.93C369.62,36.02,369.8,36.34,370.3,36.54z M366.29,35.27
v-2.31h-0.57c-1.31,0-1.92,0.59-1.92,1.83c0,1.06,0.41,1.63,1.09,1.63C365.5,36.43,365.98,36,366.29,35.27z"/>
<path class="st3" d="M378.88,26.29l-0.57,3.28c-0.29-0.09-0.57-0.14-0.9-0.14c-1.27,0-1.74,1.09-2.08,2.69v6.33h-3.41V26.45h2.99
l0.25,2.06c0.54-1.52,1.43-2.4,2.71-2.4C378.24,26.11,378.56,26.18,378.88,26.29z"/>
<path class="st3" d="M388.06,27.54l-1.4,1.9c-0.65-0.5-1.22-0.77-1.9-0.77c-1.24,0-1.97,0.88-1.97,3.87c0,2.9,0.82,3.64,1.97,3.64
c0.66,0,1.15-0.25,1.83-0.72l1.49,1.99c-0.95,0.86-2.1,1.4-3.55,1.4c-3.3,0-5.32-2.35-5.32-6.29c0-4,2.04-6.49,5.27-6.49
C385.94,26.07,387.09,26.56,388.06,27.54z"/>
<path class="st3" d="M398.4,29.71v8.75h-3.41v-8.37c0-1.09-0.29-1.43-0.79-1.43c-0.57,0-1.09,0.54-1.61,1.45v8.35h-3.41V21.68
l3.41-0.34v6.42c0.82-1.13,1.72-1.7,2.92-1.7C397.32,26.07,398.4,27.4,398.4,29.71z"/>
<path class="st3" d="M415.02,32.42c0,3.89-1.58,6.42-4.09,6.42c-1.02,0-1.83-0.43-2.49-1.24v5.5l-3.41,0.36V26.45h3.03l0.16,1.33
c0.81-1.22,1.83-1.72,3.01-1.72C413.77,26.07,415.02,28.37,415.02,32.42z M411.51,32.47c0-3.14-0.57-3.89-1.45-3.89
c-0.66,0-1.2,0.52-1.63,1.31v5.45c0.41,0.63,0.88,1,1.47,1C410.85,36.34,411.51,35.39,411.51,32.47z"/>
<path class="st3" d="M423.76,26.29l-0.57,3.28c-0.29-0.09-0.57-0.14-0.9-0.14c-1.27,0-1.74,1.09-2.08,2.69v6.33h-3.41V26.45h2.99
l0.25,2.06c0.54-1.52,1.43-2.4,2.71-2.4C423.12,26.11,423.44,26.18,423.76,26.29z"/>
<path class="st3" d="M434.46,32.47c0,4.07-1.97,6.38-5.18,6.38c-3.19,0-5.18-2.13-5.18-6.4c0-4.12,1.97-6.38,5.18-6.38
C432.47,26.07,434.46,28.17,434.46,32.47z M427.63,32.44c0,2.92,0.52,3.89,1.65,3.89s1.67-1.02,1.67-3.87
c0-2.9-0.54-3.87-1.67-3.87C428.17,28.6,427.63,29.62,427.63,32.44z"/>
<path class="st3" d="M446.2,32.47c0,3.89-1.54,6.38-4.12,6.38c-1.13,0-2.06-0.57-2.69-1.52l-0.16,1.13h-3.03V21.68l3.41-0.36v6.29
c0.63-0.95,1.63-1.54,2.83-1.54C444.89,26.07,446.2,28.26,446.2,32.47z M442.7,32.47c0-3.26-0.61-3.89-1.45-3.89
c-0.63,0-1.18,0.54-1.63,1.33v5.36c0.36,0.66,0.86,1.09,1.47,1.09C442.04,36.36,442.7,35.5,442.7,32.47z"/>
<path class="st3" d="M447.86,35.68v-14l3.41-0.36v14.2c0,0.41,0.16,0.61,0.52,0.61c0.18,0,0.34-0.02,0.45-0.07l0.63,2.35
c-0.45,0.23-1.18,0.43-1.94,0.43C448.99,38.85,447.86,37.63,447.86,35.68z"/>
<path class="st3" d="M463.16,33.46h-6.43c0.18,2.29,0.97,2.87,2.17,2.87c0.93,0,1.65-0.32,2.53-1l1.38,1.86
c-0.99,0.95-2.37,1.65-4.16,1.65c-3.55,0-5.34-2.47-5.34-6.31c0-3.8,1.72-6.47,5-6.47c2.99,0,4.91,2.08,4.91,6.15
C463.22,32.6,463.18,33.12,463.16,33.46z M459.9,31.25c-0.02-1.92-0.41-2.92-1.54-2.92c-0.95,0-1.52,0.68-1.63,3.1h3.17V31.25z"/>
<path class="st3" d="M479.24,29.71v8.75h-3.35v-8.39c0-1.09-0.27-1.42-0.75-1.42c-0.54,0-0.97,0.5-1.43,1.36v8.46h-3.32v-8.39
c0-1.09-0.29-1.42-0.75-1.42c-0.57,0-0.99,0.5-1.43,1.36v8.46h-3.37V26.45h2.99l0.2,1.45c0.82-1.18,1.74-1.83,2.99-1.83
c1.15,0,2.04,0.7,2.44,1.92c0.81-1.24,1.76-1.92,3.05-1.92C478.16,26.07,479.24,27.4,479.24,29.71z"/>
<path class="st4" d="M331.98,84c0,2.67-2.47,4.95-6.47,4.95c-3.37,0-5.25-1.79-5.25-4.14c0-1.54,0.86-3.14,3.42-4.16
c-1.24-0.84-1.77-1.9-1.77-3.1c0-2.4,2.01-4.59,5.7-4.59c2.8,0,4.84,1.36,4.84,3.64c0,1.36-0.79,2.74-2.96,3.8
C331.16,81.28,331.98,82.5,331.98,84z M328.45,83.91c0-0.93-0.57-1.42-1.99-1.99l-0.68-0.25c-1.6,0.84-1.97,2.13-1.97,2.99
c0,1.06,0.75,1.74,2.01,1.74C327.52,86.39,328.45,85.26,328.45,83.91z M325.28,77.44c0,0.88,0.52,1.4,1.54,1.86l0.43,0.16
c1.56-0.97,1.79-2.01,1.79-2.71c0-0.81-0.54-1.36-1.56-1.36C325.76,75.38,325.28,76.6,325.28,77.44z"/>
<path class="st4" d="M345.42,78.75c0,4.05-1.52,10.2-6.85,10.2c-3.17,0-4.84-2.08-4.84-5.84c0-4.09,1.52-10.16,6.85-10.16
C343.72,72.96,345.42,75.02,345.42,78.75z M337.48,81.03c-0.16,1.18-0.25,2.1-0.25,2.83c0,1.79,0.52,2.44,1.54,2.44
c1.49,0,2.31-1.27,2.9-5.45c0.18-1.22,0.27-2.15,0.27-2.85c0-1.81-0.52-2.4-1.54-2.4C338.88,75.6,338.05,76.94,337.48,81.03z"/>
<path class="st4" d="M355.31,76.4c0,2.04-1.31,4.7-4.5,4.7c-2.04,0-3.51-1.36-3.51-3.46c0-2.06,1.38-4.68,4.5-4.68
C353.84,72.96,355.31,74.29,355.31,76.4z M363,73.68L350.5,89.47l-1.99-1.4l12.51-15.79L363,73.68z M349.82,77.6
c0,0.75,0.27,1.36,1.18,1.36c1.47,0,1.81-1.54,1.81-2.51c0-0.72-0.27-1.33-1.15-1.33C350.09,75.11,349.82,76.76,349.82,77.6z
M364.11,84.24c0,2.04-1.31,4.71-4.5,4.71c-2.04,0-3.48-1.33-3.48-3.44c0-2.06,1.36-4.68,4.5-4.68
C362.67,80.83,364.11,82.16,364.11,84.24z M358.62,85.44c0,0.75,0.27,1.38,1.18,1.38c1.47,0,1.81-1.56,1.81-2.51
c0-0.75-0.27-1.36-1.15-1.36C358.89,82.96,358.62,84.61,358.62,85.44z"/>
<path class="st0" d="M317.63,243.85c0,2.67-2.47,4.96-6.47,4.96c-3.37,0-5.25-1.79-5.25-4.14c0-1.54,0.86-3.15,3.42-4.16
c-1.24-0.84-1.76-1.9-1.76-3.1c0-2.4,2.01-4.59,5.7-4.59c2.8,0,4.84,1.36,4.84,3.64c0,1.36-0.79,2.74-2.96,3.8
C316.82,241.14,317.63,242.36,317.63,243.85z M314.1,243.76c0-0.93-0.57-1.42-1.99-1.99l-0.68-0.25
c-1.61,0.84-1.97,2.13-1.97,2.99c0,1.06,0.75,1.74,2.01,1.74C313.17,246.25,314.1,245.12,314.1,243.76z M310.94,237.29
c0,0.88,0.52,1.4,1.54,1.86l0.43,0.16c1.56-0.97,1.79-2.01,1.79-2.71c0-0.81-0.54-1.36-1.56-1.36
C311.41,235.23,310.94,236.46,310.94,237.29z"/>
<path class="st0" d="M331.08,238.6c0,4.05-1.52,10.2-6.85,10.2c-3.17,0-4.84-2.08-4.84-5.84c0-4.09,1.52-10.16,6.85-10.16
C329.38,232.81,331.08,234.87,331.08,238.6z M323.14,240.89c-0.16,1.18-0.25,2.1-0.25,2.83c0,1.79,0.52,2.44,1.54,2.44
c1.49,0,2.31-1.27,2.9-5.45c0.18-1.22,0.27-2.15,0.27-2.85c0-1.81-0.52-2.4-1.54-2.4C324.54,235.46,323.7,236.79,323.14,240.89z"/>
<path class="st0" d="M340.97,236.25c0,2.04-1.31,4.7-4.5,4.7c-2.04,0-3.51-1.36-3.51-3.46c0-2.06,1.38-4.68,4.5-4.68
C339.5,232.81,340.97,234.15,340.97,236.25z M348.66,233.54l-12.51,15.79l-1.99-1.4l12.51-15.79L348.66,233.54z M335.47,237.45
c0,0.75,0.27,1.36,1.18,1.36c1.47,0,1.81-1.54,1.81-2.51c0-0.72-0.27-1.33-1.15-1.33C335.74,234.96,335.47,236.61,335.47,237.45z
M349.77,244.1c0,2.04-1.31,4.71-4.5,4.71c-2.04,0-3.48-1.33-3.48-3.44c0-2.06,1.36-4.68,4.5-4.68
C348.32,240.69,349.77,242.02,349.77,244.1z M344.27,245.3c0,0.75,0.27,1.38,1.18,1.38c1.47,0,1.81-1.56,1.81-2.51
c0-0.75-0.27-1.36-1.15-1.36C344.54,242.81,344.27,244.46,344.27,245.3z"/>
<path class="st0" d="M368.24,241.14c-0.02,3.3-1.65,7.67-6.69,7.67c-3.19,0-5.02-1.92-5.02-5.11c0-3.35,1.63-7.67,6.69-7.67
C366.41,236.02,368.26,237.99,368.24,241.14z M360.12,243.92c0,1.58,0.57,2.26,1.67,2.26c2.35,0,2.83-3.44,2.83-5.27
c0.02-1.58-0.54-2.26-1.65-2.26C360.59,238.65,360.12,242.09,360.12,243.92z"/>
<path class="st0" d="M375.17,235.53l-0.11,0.88h2.78l-0.72,2.49h-2.42l-1.15,8.21c-0.54,3.91-2.69,5.29-5.59,6.33l-0.88-2.58
c1.7-0.66,2.65-1.43,2.94-3.62l1.18-8.35h-1.79l0.34-2.49h1.79l0.16-1.11c0.32-2.31,2.01-4.05,4.93-4.05
c1.45,0,2.53,0.45,3.35,0.99l-1.24,2.15c-0.61-0.41-1.29-0.5-1.81-0.5C375.87,233.9,375.33,234.37,375.17,235.53z"/>
<path class="st0" d="M386.01,244.06c0.09,1.58,0.95,2.13,2.13,2.13c1.02,0,1.95-0.36,3.05-1.11l1.27,2.13
c-1.31,0.95-2.92,1.61-4.77,1.61c-3.51,0-5.22-2.04-5.22-5.09c0-3.26,1.76-7.69,6.81-7.69c2.92,0,4.43,1.47,4.43,3.28
C393.7,242.68,389.76,243.69,386.01,244.06z M390.15,239.51c0-0.54-0.27-1.11-1.22-1.11c-1.68,0-2.47,1.76-2.76,3.48
C389.15,241.66,390.15,240.53,390.15,239.51z"/>
<path class="st0" d="M400.24,235.53l-0.11,0.88h2.78l-0.72,2.49h-2.42l-1.15,8.21c-0.54,3.91-2.69,5.29-5.59,6.33l-0.88-2.58
c1.7-0.66,2.65-1.43,2.94-3.62l1.18-8.35h-1.79l0.34-2.49h1.79l0.16-1.11c0.32-2.31,2.01-4.05,4.93-4.05
c1.45,0,2.54,0.45,3.35,0.99l-1.24,2.15c-0.61-0.41-1.29-0.5-1.81-0.5C400.94,233.9,400.4,234.37,400.24,235.53z"/>
<path class="st0" d="M408.07,235.53l-0.11,0.88h2.78l-0.72,2.49h-2.42l-1.15,8.21c-0.54,3.91-2.69,5.29-5.59,6.33l-0.88-2.58
c1.7-0.66,2.65-1.43,2.94-3.62l1.18-8.35h-1.79l0.34-2.49h1.79l0.16-1.11c0.32-2.31,2.01-4.05,4.93-4.05
c1.45,0,2.54,0.45,3.35,0.99l-1.24,2.15c-0.61-0.41-1.29-0.5-1.81-0.5C408.77,233.9,408.23,234.37,408.07,235.53z"/>
<path class="st0" d="M421.74,241.14c-0.02,3.3-1.65,7.67-6.7,7.67c-3.19,0-5.02-1.92-5.02-5.11c0-3.35,1.63-7.67,6.7-7.67
C419.91,236.02,421.76,237.99,421.74,241.14z M413.62,243.92c0,1.58,0.56,2.26,1.67,2.26c2.35,0,2.83-3.44,2.83-5.27
c0.02-1.58-0.54-2.26-1.65-2.26C414.09,238.65,413.62,242.09,413.62,243.92z"/>
<path class="st0" d="M432.2,236.25l-1.02,3.44c-0.36-0.09-0.63-0.16-0.99-0.16c-1.49,0-2.31,1.42-2.96,3.32l-0.79,5.57h-3.51
l1.68-12.01h3.05l-0.04,2.24c0.81-1.65,2.15-2.58,3.39-2.58C431.47,236.07,431.81,236.14,432.2,236.25z"/>
<path class="st0" d="M436.75,244.44c-0.16,1.15,0.11,1.51,0.81,1.51c0.43,0,0.88-0.11,1.36-0.38l0.95,2.35
c-1.02,0.59-2.29,0.88-3.3,0.88c-2.65-0.02-3.73-1.56-3.35-4.37l0.79-5.54h-1.65l0.34-2.49h1.81l0.75-2.67l3.03-0.34l-0.43,3.01
h2.71l-0.7,2.49h-2.35L436.75,244.44z"/>
<path class="st0" d="M451.61,235.71c0,4.46-5.18,3.71-5.18,6.47c0,0.13,0,0.34,0.04,0.5l-3.1,0.48c-0.11-0.34-0.18-0.77-0.18-1.09
c0-3.89,4.71-3.51,4.71-5.9c0-0.63-0.48-1-1.33-1c-0.93,0-1.9,0.5-2.85,1.4l-2.01-1.83c1.47-1.49,3.23-2.38,5.5-2.38
C450.19,232.36,451.61,233.88,451.61,235.71z M446.84,246.54c0,1.22-0.99,2.26-2.26,2.26c-1.06,0-1.79-0.77-1.79-1.85
c0-1.2,0.99-2.24,2.26-2.24C446.09,244.71,446.84,245.48,446.84,246.54z"/>
<path class="st1" d="M581.36,76.92c0,2.13-0.86,4.18-7.08,8.93l6.18-0.02l-0.77,2.74h-9.77l0.32-2.58
c6.49-5.7,7.49-6.85,7.49-8.64c0-1.06-0.68-1.65-1.7-1.65c-1.11,0-1.95,0.54-2.94,1.63l-1.97-1.88c1.52-1.58,3.39-2.49,5.5-2.49
C579.71,72.96,581.36,74.7,581.36,76.92z"/>
<path class="st1" d="M594.17,78.75c0,4.05-1.52,10.2-6.85,10.2c-3.17,0-4.84-2.08-4.84-5.84c0-4.09,1.52-10.16,6.85-10.16
C592.48,72.96,594.17,75.02,594.17,78.75z M586.23,81.03c-0.16,1.18-0.25,2.1-0.25,2.83c0,1.79,0.52,2.44,1.54,2.44
c1.49,0,2.31-1.27,2.9-5.45c0.18-1.22,0.27-2.15,0.27-2.85c0-1.81-0.52-2.4-1.54-2.4C587.64,75.6,586.8,76.94,586.23,81.03z"/>
<path class="st1" d="M604.07,76.4c0,2.04-1.31,4.7-4.5,4.7c-2.04,0-3.51-1.36-3.51-3.46c0-2.06,1.38-4.68,4.5-4.68
C602.6,72.96,604.07,74.29,604.07,76.4z M611.76,73.68l-12.51,15.79l-1.99-1.4l12.51-15.79L611.76,73.68z M598.57,77.6
c0,0.75,0.27,1.36,1.18,1.36c1.47,0,1.81-1.54,1.81-2.51c0-0.72-0.27-1.33-1.15-1.33C598.84,75.11,598.57,76.76,598.57,77.6z
M612.86,84.24c0,2.04-1.31,4.71-4.5,4.71c-2.04,0-3.49-1.33-3.49-3.44c0-2.06,1.36-4.68,4.5-4.68
C611.42,80.83,612.86,82.16,612.86,84.24z M607.37,85.44c0,0.75,0.27,1.38,1.18,1.38c1.47,0,1.81-1.56,1.81-2.51
c0-0.75-0.27-1.36-1.15-1.36C607.64,82.96,607.37,84.61,607.37,85.44z"/>
<path class="st3" d="M566.56,32.42c0,3.89-1.58,6.42-4.09,6.42c-1.02,0-1.83-0.43-2.49-1.24v5.5l-3.41,0.36V26.45h3.03l0.16,1.33
c0.81-1.22,1.83-1.72,3.01-1.72C565.32,26.07,566.56,28.37,566.56,32.42z M563.06,32.47c0-3.14-0.57-3.89-1.45-3.89
c-0.66,0-1.2,0.52-1.63,1.31v5.45c0.41,0.63,0.88,1,1.47,1C562.4,36.34,563.06,35.39,563.06,32.47z"/>
<path class="st3" d="M575.3,26.29l-0.56,3.28c-0.29-0.09-0.57-0.14-0.91-0.14c-1.27,0-1.74,1.09-2.08,2.69v6.33h-3.42V26.45h2.99
l0.25,2.06c0.54-1.52,1.43-2.4,2.71-2.4C574.67,26.11,574.98,26.18,575.3,26.29z"/>
<path class="st3" d="M584.9,36.54l-0.7,2.24c-1.29-0.11-2.15-0.54-2.6-1.65c-0.82,1.24-1.94,1.72-3.15,1.72
c-2.08,0-3.39-1.49-3.39-3.76c0-2.6,1.72-4.03,4.95-4.03h0.88v-0.61c0-1.47-0.43-1.92-1.63-1.92c-0.79,0-1.68,0.23-2.72,0.59
l-0.74-2.15c1.29-0.59,2.8-0.91,4.09-0.91c2.94,0,4.32,1.36,4.32,4.21v4.93C584.22,36.02,584.4,36.34,584.9,36.54z M580.89,35.27
v-2.31h-0.56c-1.31,0-1.92,0.59-1.92,1.83c0,1.06,0.41,1.63,1.09,1.63C580.1,36.43,580.58,36,580.89,35.27z"/>
<path class="st3" d="M594.88,27.54l-1.4,1.9c-0.65-0.5-1.22-0.77-1.9-0.77c-1.24,0-1.97,0.88-1.97,3.87c0,2.9,0.82,3.64,1.97,3.64
c0.66,0,1.15-0.25,1.83-0.72l1.49,1.99c-0.95,0.86-2.1,1.4-3.55,1.4c-3.3,0-5.32-2.35-5.32-6.29c0-4,2.04-6.49,5.27-6.49
C592.75,26.07,593.91,26.56,594.88,27.54z"/>
<path class="st3" d="M602.75,37.9c-0.82,0.66-1.99,0.95-2.94,0.95c-2.44,0-3.57-1.52-3.57-3.78v-6.24h-1.33v-2.37h1.33v-2.62
l3.42-0.38v3.01h2.37l-0.36,2.37h-2.01v6.2c0,0.75,0.32,1.11,0.93,1.11c0.36,0,0.66-0.11,1.04-0.32L602.75,37.9z"/>
<path class="st3" d="M607.28,22.17c0,1.11-0.79,1.95-1.95,1.95c-1.18,0-1.97-0.84-1.97-1.95c0-1.11,0.79-1.94,1.97-1.94
C606.49,20.23,607.28,21.07,607.28,22.17z M607.03,38.46h-3.42V26.45h3.42V38.46z"/>
<path class="st3" d="M617.62,27.54l-1.4,1.9c-0.65-0.5-1.22-0.77-1.9-0.77c-1.24,0-1.97,0.88-1.97,3.87c0,2.9,0.82,3.64,1.97,3.64
c0.66,0,1.15-0.25,1.83-0.72l1.49,1.99c-0.95,0.86-2.1,1.4-3.55,1.4c-3.3,0-5.32-2.35-5.32-6.29c0-4,2.04-6.49,5.27-6.49
C615.5,26.07,616.65,26.56,617.62,27.54z"/>
<path class="st3" d="M627.71,33.46h-6.42c0.18,2.29,0.97,2.87,2.17,2.87c0.93,0,1.65-0.32,2.53-1l1.38,1.86
c-1,0.95-2.38,1.65-4.16,1.65c-3.55,0-5.34-2.47-5.34-6.31c0-3.8,1.72-6.47,5-6.47c2.99,0,4.91,2.08,4.91,6.15
C627.78,32.6,627.74,33.12,627.71,33.46z M624.46,31.25c-0.02-1.92-0.41-2.92-1.54-2.92c-0.95,0-1.52,0.68-1.63,3.1h3.17V31.25z"/>
<path class="st3" d="M155.24,176v8.75h-3.35v-8.39c0-1.09-0.27-1.42-0.75-1.42c-0.54,0-0.97,0.5-1.42,1.36v8.46h-3.33v-8.39
c0-1.09-0.29-1.42-0.75-1.42c-0.56,0-0.99,0.5-1.42,1.36v8.46h-3.37v-12.01h2.99l0.2,1.45c0.81-1.18,1.74-1.83,2.99-1.83
c1.15,0,2.04,0.7,2.44,1.92c0.81-1.24,1.76-1.92,3.05-1.92C154.16,172.36,155.24,173.69,155.24,176z"/>
<path class="st3" d="M167.29,178.76c0,4.07-1.97,6.38-5.18,6.38c-3.19,0-5.18-2.13-5.18-6.4c0-4.12,1.97-6.38,5.18-6.38
C165.3,172.36,167.29,174.46,167.29,178.76z M160.45,178.74c0,2.92,0.52,3.89,1.65,3.89c1.13,0,1.67-1.02,1.67-3.87
c0-2.9-0.54-3.87-1.67-3.87C161,174.89,160.45,175.91,160.45,178.74z"/>
<path class="st3" d="M176,172.59l-0.56,3.28c-0.29-0.09-0.57-0.13-0.91-0.13c-1.27,0-1.74,1.09-2.08,2.69v6.33h-3.42v-12.01h2.99
l0.25,2.06c0.54-1.52,1.43-2.4,2.71-2.4C175.37,172.4,175.68,172.47,176,172.59z"/>
<path class="st3" d="M186.18,179.76h-6.42c0.18,2.29,0.97,2.87,2.17,2.87c0.93,0,1.65-0.32,2.53-0.99l1.38,1.85
c-1,0.95-2.37,1.65-4.16,1.65c-3.55,0-5.34-2.46-5.34-6.31c0-3.8,1.72-6.47,5-6.47c2.99,0,4.91,2.08,4.91,6.15
C186.25,178.9,186.21,179.42,186.18,179.76z M182.93,177.54c-0.02-1.92-0.41-2.92-1.54-2.92c-0.95,0-1.52,0.68-1.63,3.1h3.17
V177.54z"/>
<path class="st3" d="M199.33,172.59l-0.56,3.28c-0.29-0.09-0.57-0.13-0.91-0.13c-1.27,0-1.74,1.09-2.08,2.69v6.33h-3.42v-12.01
h2.99l0.25,2.06c0.54-1.52,1.43-2.4,2.71-2.4C198.7,172.4,199.02,172.47,199.33,172.59z"/>
<path class="st3" d="M209.52,179.76h-6.42c0.18,2.29,0.97,2.87,2.17,2.87c0.93,0,1.65-0.32,2.53-0.99l1.38,1.85
c-1,0.95-2.37,1.65-4.16,1.65c-3.55,0-5.34-2.46-5.34-6.31c0-3.8,1.72-6.47,5-6.47c2.99,0,4.91,2.08,4.91,6.15
C209.59,178.9,209.54,179.42,209.52,179.76z M206.26,177.54c-0.02-1.92-0.41-2.92-1.54-2.92c-0.95,0-1.52,0.68-1.63,3.1h3.17
V177.54z"/>
<path class="st3" d="M218.91,173.83l-1.24,1.85c-0.81-0.54-1.58-0.88-2.4-0.88c-0.79,0-1.27,0.38-1.27,1.02
c0,0.68,0.36,0.99,2.15,1.7c2.01,0.75,3.12,1.72,3.12,3.71c0,2.44-2.01,3.91-4.73,3.91c-1.81,0-3.37-0.68-4.43-1.76l1.61-1.79
c0.79,0.63,1.72,1.13,2.67,1.13c0.88,0,1.4-0.45,1.4-1.2c0-0.84-0.36-1.2-2.13-1.85c-2.15-0.82-3.03-1.86-3.03-3.6
c0-2.1,1.58-3.71,4.34-3.71C216.56,172.36,217.92,172.93,218.91,173.83z"/>
<path class="st3" d="M230.07,179.76h-6.42c0.18,2.29,0.97,2.87,2.17,2.87c0.93,0,1.65-0.32,2.53-0.99l1.38,1.85
c-1,0.95-2.37,1.65-4.16,1.65c-3.55,0-5.34-2.46-5.34-6.31c0-3.8,1.72-6.47,5-6.47c2.99,0,4.91,2.08,4.91,6.15
C230.13,178.9,230.09,179.42,230.07,179.76z M226.81,177.54c-0.02-1.92-0.41-2.92-1.54-2.92c-0.95,0-1.52,0.68-1.63,3.1h3.17
V177.54z"/>
<path class="st3" d="M240.95,182.83l-0.7,2.24c-1.29-0.11-2.15-0.54-2.6-1.65c-0.81,1.24-1.94,1.72-3.14,1.72
c-2.08,0-3.39-1.49-3.39-3.76c0-2.6,1.72-4.02,4.95-4.02h0.88v-0.61c0-1.47-0.43-1.92-1.63-1.92c-0.79,0-1.67,0.23-2.72,0.59
l-0.75-2.15c1.29-0.59,2.8-0.9,4.09-0.9c2.94,0,4.32,1.36,4.32,4.21v4.93C240.27,182.31,240.46,182.63,240.95,182.83z
M236.95,181.57v-2.31h-0.56c-1.31,0-1.92,0.59-1.92,1.83c0,1.06,0.41,1.63,1.09,1.63C236.16,182.72,236.63,182.29,236.95,181.57z"/>
<path class="st3" d="M249.53,172.59l-0.56,3.28c-0.29-0.09-0.57-0.13-0.91-0.13c-1.27,0-1.74,1.09-2.08,2.69v6.33h-3.42v-12.01
h2.99l0.25,2.06c0.54-1.52,1.43-2.4,2.71-2.4C248.9,172.4,249.22,172.47,249.53,172.59z"/>
<path class="st3" d="M258.72,173.83l-1.4,1.9c-0.66-0.5-1.22-0.77-1.9-0.77c-1.24,0-1.97,0.88-1.97,3.87
c0,2.9,0.81,3.64,1.97,3.64c0.66,0,1.15-0.25,1.83-0.72l1.49,1.99c-0.95,0.86-2.1,1.4-3.55,1.4c-3.3,0-5.32-2.35-5.32-6.29
c0-4,2.04-6.49,5.27-6.49C256.59,172.36,257.75,172.86,258.72,173.83z"/>
<path class="st3" d="M269.06,176v8.75h-3.42v-8.37c0-1.09-0.29-1.43-0.79-1.43c-0.57,0-1.09,0.54-1.61,1.45v8.35h-3.42v-16.78
l3.42-0.34v6.42c0.81-1.13,1.72-1.7,2.92-1.7C267.98,172.36,269.06,173.69,269.06,176z"/>
<path class="st3" d="M285.67,178.72c0,3.89-1.58,6.42-4.09,6.42c-1.02,0-1.83-0.43-2.49-1.24v5.5l-3.42,0.36v-17.01h3.03
l0.16,1.33c0.81-1.22,1.83-1.72,3.01-1.72C284.43,172.36,285.67,174.67,285.67,178.72z M282.17,178.76c0-3.14-0.56-3.89-1.45-3.89
c-0.66,0-1.2,0.52-1.63,1.31v5.45c0.41,0.63,0.88,0.99,1.47,0.99C281.51,182.63,282.17,181.68,282.17,178.76z"/>
<path class="st3" d="M294.41,172.59l-0.56,3.28c-0.29-0.09-0.57-0.13-0.91-0.13c-1.27,0-1.74,1.09-2.08,2.69v6.33h-3.42v-12.01
h2.99l0.25,2.06c0.54-1.52,1.43-2.4,2.71-2.4C293.78,172.4,294.1,172.47,294.41,172.59z"/>
<path class="st3" d="M305.12,178.76c0,4.07-1.97,6.38-5.18,6.38c-3.19,0-5.18-2.13-5.18-6.4c0-4.12,1.97-6.38,5.18-6.38
C303.13,172.36,305.12,174.46,305.12,178.76z M298.28,178.74c0,2.92,0.52,3.89,1.65,3.89c1.13,0,1.67-1.02,1.67-3.87
c0-2.9-0.54-3.87-1.67-3.87C298.83,174.89,298.28,175.91,298.28,178.74z"/>
<path class="st3" d="M316.86,178.76c0,3.89-1.54,6.38-4.12,6.38c-1.13,0-2.06-0.57-2.69-1.51l-0.16,1.13h-3.03v-16.78l3.42-0.36
v6.29c0.63-0.95,1.63-1.54,2.83-1.54C315.55,172.36,316.86,174.55,316.86,178.76z M313.36,178.76c0-3.26-0.61-3.89-1.45-3.89
c-0.63,0-1.18,0.54-1.63,1.33v5.36c0.36,0.66,0.86,1.09,1.47,1.09C312.7,182.65,313.36,181.79,313.36,178.76z"/>
<path class="st3" d="M318.52,181.97v-14l3.41-0.36v14.2c0,0.41,0.16,0.61,0.52,0.61c0.18,0,0.34-0.02,0.45-0.07l0.63,2.35
c-0.45,0.23-1.18,0.43-1.95,0.43C319.65,185.14,318.52,183.92,318.52,181.97z"/>
<path class="st3" d="M333.81,179.76h-6.43c0.18,2.29,0.97,2.87,2.17,2.87c0.93,0,1.65-0.32,2.53-0.99l1.38,1.85
c-0.99,0.95-2.37,1.65-4.16,1.65c-3.55,0-5.34-2.46-5.34-6.31c0-3.8,1.72-6.47,5-6.47c2.99,0,4.91,2.08,4.91,6.15
C333.88,178.9,333.84,179.42,333.81,179.76z M330.56,177.54c-0.02-1.92-0.41-2.92-1.54-2.92c-0.95,0-1.52,0.68-1.63,3.1h3.17
V177.54z"/>
<path class="st3" d="M349.9,176v8.75h-3.35v-8.39c0-1.09-0.27-1.42-0.75-1.42c-0.54,0-0.97,0.5-1.43,1.36v8.46h-3.32v-8.39
c0-1.09-0.29-1.42-0.75-1.42c-0.57,0-0.99,0.5-1.43,1.36v8.46h-3.37v-12.01h2.99l0.2,1.45c0.82-1.18,1.74-1.83,2.99-1.83
c1.15,0,2.04,0.7,2.44,1.92c0.81-1.24,1.76-1.92,3.05-1.92C348.82,172.36,349.9,173.69,349.9,176z"/>
<path class="st3" d="M359.75,173.83l-1.24,1.85c-0.81-0.54-1.58-0.88-2.4-0.88c-0.79,0-1.27,0.38-1.27,1.02
c0,0.68,0.36,0.99,2.15,1.7c2.01,0.75,3.12,1.72,3.12,3.71c0,2.44-2.01,3.91-4.73,3.91c-1.81,0-3.37-0.68-4.43-1.76l1.6-1.79
c0.79,0.63,1.72,1.13,2.67,1.13c0.88,0,1.4-0.45,1.4-1.2c0-0.84-0.36-1.2-2.13-1.85c-2.15-0.82-3.03-1.86-3.03-3.6
c0-2.1,1.58-3.71,4.34-3.71C357.4,172.36,358.76,172.93,359.75,173.83z"/>
<path class="st3" d="M402.98,173.83l-1.24,1.85c-0.82-0.54-1.58-0.88-2.4-0.88c-0.79,0-1.27,0.38-1.27,1.02
c0,0.68,0.36,0.99,2.15,1.7c2.01,0.75,3.12,1.72,3.12,3.71c0,2.44-2.01,3.91-4.73,3.91c-1.81,0-3.37-0.68-4.43-1.76l1.61-1.79
c0.79,0.63,1.72,1.13,2.67,1.13c0.88,0,1.4-0.45,1.4-1.2c0-0.84-0.36-1.2-2.13-1.85c-2.15-0.82-3.03-1.86-3.03-3.6
c0-2.1,1.58-3.71,4.34-3.71C400.63,172.36,401.98,172.93,402.98,173.83z"/>
<path class="st3" d="M414.66,178.76c0,4.07-1.97,6.38-5.18,6.38c-3.19,0-5.18-2.13-5.18-6.4c0-4.12,1.97-6.38,5.18-6.38
C412.66,172.36,414.66,174.46,414.66,178.76z M407.82,178.74c0,2.92,0.52,3.89,1.65,3.89s1.67-1.02,1.67-3.87
c0-2.9-0.54-3.87-1.67-3.87C408.37,174.89,407.82,175.91,407.82,178.74z"/>
<path class="st3" d="M420.27,171.48v1.27h2.44l-0.36,2.37h-2.08v9.64h-3.42v-9.64h-1.47v-2.37h1.47v-1.18
c0-2.35,1.38-3.96,4.12-3.96c1.18,0,2.15,0.32,2.96,0.74l-0.91,2.15c-0.56-0.25-1.06-0.38-1.54-0.38
C420.63,170.12,420.27,170.55,420.27,171.48z"/>
<path class="st3" d="M430.34,184.19c-0.81,0.66-1.99,0.95-2.94,0.95c-2.44,0-3.57-1.51-3.57-3.78v-6.24h-1.33v-2.37h1.33v-2.62
l3.41-0.38v3.01h2.38l-0.36,2.37h-2.01v6.2c0,0.74,0.32,1.11,0.93,1.11c0.36,0,0.66-0.11,1.04-0.32L430.34,184.19z"/>
<path class="st3" d="M442.83,184.75h-3.98l-1.27-8.93l-1.24,8.93h-3.96l-2.15-12.01h3.3l1.02,9.43l1.49-9.43h3.21l1.4,9.43
l1.09-9.43h3.19L442.83,184.75z"/>
<path class="st3" d="M455.37,182.83l-0.7,2.24c-1.29-0.11-2.15-0.54-2.6-1.65c-0.82,1.24-1.94,1.72-3.15,1.72
c-2.08,0-3.39-1.49-3.39-3.76c0-2.6,1.72-4.02,4.95-4.02h0.88v-0.61c0-1.47-0.43-1.92-1.63-1.92c-0.79,0-1.68,0.23-2.72,0.59
l-0.74-2.15c1.29-0.59,2.8-0.9,4.09-0.9c2.94,0,4.32,1.36,4.32,4.21v4.93C454.69,182.31,454.87,182.63,455.37,182.83z
M451.37,181.57v-2.31h-0.56c-1.31,0-1.92,0.59-1.92,1.83c0,1.06,0.41,1.63,1.09,1.63C450.57,182.72,451.05,182.29,451.37,181.57z
"/>
<path class="st3" d="M463.95,172.59l-0.56,3.28c-0.29-0.09-0.57-0.13-0.91-0.13c-1.27,0-1.74,1.09-2.08,2.69v6.33h-3.42v-12.01
h2.99l0.25,2.06c0.54-1.52,1.43-2.4,2.71-2.4C463.32,172.4,463.63,172.47,463.95,172.59z"/>
<path class="st3" d="M474.13,179.76h-6.43c0.18,2.29,0.97,2.87,2.17,2.87c0.93,0,1.65-0.32,2.53-0.99l1.38,1.85
c-0.99,0.95-2.37,1.65-4.16,1.65c-3.55,0-5.34-2.46-5.34-6.31c0-3.8,1.72-6.47,5-6.47c2.99,0,4.91,2.08,4.91,6.15
C474.2,178.9,474.15,179.42,474.13,179.76z M470.87,177.54c-0.02-1.92-0.41-2.92-1.54-2.92c-0.95,0-1.52,0.68-1.63,3.1h3.17
V177.54z"/>
<path class="st3" d="M489.68,179.76h-6.43c0.18,2.29,0.97,2.87,2.17,2.87c0.93,0,1.65-0.32,2.53-0.99l1.38,1.85
c-0.99,0.95-2.37,1.65-4.16,1.65c-3.55,0-5.34-2.46-5.34-6.31c0-3.8,1.72-6.47,5-6.47c2.99,0,4.91,2.08,4.91,6.15
C489.75,178.9,489.7,179.42,489.68,179.76z M486.42,177.54c-0.02-1.92-0.41-2.92-1.54-2.92c-0.95,0-1.52,0.68-1.63,3.1h3.17
V177.54z"/>
<path class="st3" d="M500.61,176v8.75h-3.42v-8.37c0-1.09-0.29-1.43-0.79-1.43c-0.57,0-1.09,0.54-1.6,1.45v8.35h-3.42v-12.01h2.99
l0.25,1.43c0.81-1.18,1.76-1.81,3.1-1.81C499.53,172.36,500.61,173.69,500.61,176z"/>
<path class="st3" d="M512.47,173.4c-0.68,0.34-1.63,0.48-2.96,0.48c1.36,0.61,2.04,1.54,2.04,3.12c0,2.35-1.7,4-4.5,4
c-0.43,0-0.81-0.04-1.15-0.13c-0.25,0.16-0.38,0.45-0.38,0.77c0,0.45,0.2,0.79,1.2,0.79h1.33c2.67,0,4.23,1.4,4.23,3.39
c0,2.38-1.92,3.94-5.54,3.94c-4.07,0-5.09-1.49-5.09-3.85h3.05c0,1.09,0.36,1.61,2.06,1.61c1.63,0,2.1-0.61,2.1-1.45
c0-0.86-0.5-1.31-1.58-1.31h-1.13c-2.47,0-3.42-0.99-3.42-2.33c0-0.93,0.54-1.72,1.29-2.24c-1.31-0.79-1.9-1.81-1.9-3.44
c0-2.74,1.85-4.37,4.82-4.34c2.24,0.02,3.48-0.7,4.73-1.45L512.47,173.4z M505.46,176.7c0,1.47,0.54,2.1,1.43,2.1
c0.93,0,1.42-0.57,1.42-2.17c0-1.47-0.5-2.01-1.4-2.01C505.98,174.62,505.46,175.23,505.46,176.7z"/>
<path class="st3" d="M517.14,168.47c0,1.11-0.79,1.95-1.95,1.95c-1.18,0-1.97-0.84-1.97-1.95c0-1.11,0.79-1.94,1.97-1.94
C516.35,166.52,517.14,167.36,517.14,168.47z M516.89,184.75h-3.42v-12.01h3.42V184.75z"/>
<path class="st3" d="M528.34,176v8.75h-3.42v-8.37c0-1.09-0.29-1.43-0.79-1.43c-0.57,0-1.09,0.54-1.6,1.45v8.35h-3.42v-12.01h2.99
l0.25,1.43c0.81-1.18,1.76-1.81,3.1-1.81C527.25,172.36,528.34,173.69,528.34,176z"/>
<path class="st3" d="M539.84,179.76h-6.42c0.18,2.29,0.97,2.87,2.17,2.87c0.93,0,1.65-0.32,2.53-0.99l1.38,1.85
c-0.99,0.95-2.37,1.65-4.16,1.65c-3.55,0-5.34-2.46-5.34-6.31c0-3.8,1.72-6.47,5-6.47c2.99,0,4.91,2.08,4.91,6.15
C539.9,178.9,539.86,179.42,539.84,179.76z M536.58,177.54c-0.02-1.92-0.41-2.92-1.54-2.92c-0.95,0-1.52,0.68-1.63,3.1h3.17
V177.54z"/>
<path class="st3" d="M550.9,179.76h-6.43c0.18,2.29,0.97,2.87,2.17,2.87c0.93,0,1.65-0.32,2.53-0.99l1.38,1.85
c-0.99,0.95-2.37,1.65-4.16,1.65c-3.55,0-5.34-2.46-5.34-6.31c0-3.8,1.72-6.47,5-6.47c2.99,0,4.91,2.08,4.91,6.15
C550.97,178.9,550.92,179.42,550.9,179.76z M547.64,177.54c-0.02-1.92-0.41-2.92-1.54-2.92c-0.95,0-1.52,0.68-1.63,3.1h3.17
V177.54z"/>
<path class="st3" d="M559.57,172.59l-0.56,3.28c-0.29-0.09-0.57-0.13-0.91-0.13c-1.27,0-1.74,1.09-2.08,2.69v6.33h-3.42v-12.01
h2.99l0.25,2.06c0.54-1.52,1.43-2.4,2.71-2.4C558.94,172.4,559.25,172.47,559.57,172.59z"/>
<path class="st3" d="M564.21,168.47c0,1.11-0.79,1.95-1.94,1.95c-1.18,0-1.97-0.84-1.97-1.95c0-1.11,0.79-1.94,1.97-1.94
C563.42,166.52,564.21,167.36,564.21,168.47z M563.96,184.75h-3.42v-12.01h3.42V184.75z"/>
<path class="st3" d="M575.41,176v8.75H572v-8.37c0-1.09-0.29-1.43-0.79-1.43c-0.57,0-1.09,0.54-1.6,1.45v8.35h-3.42v-12.01h2.99
l0.25,1.43c0.81-1.18,1.76-1.81,3.1-1.81C574.33,172.36,575.41,173.69,575.41,176z"/>
<path class="st3" d="M587.27,173.4c-0.68,0.34-1.63,0.48-2.96,0.48c1.36,0.61,2.04,1.54,2.04,3.12c0,2.35-1.7,4-4.5,4
c-0.43,0-0.81-0.04-1.15-0.13c-0.25,0.16-0.38,0.45-0.38,0.77c0,0.45,0.2,0.79,1.2,0.79h1.33c2.67,0,4.23,1.4,4.23,3.39
c0,2.38-1.92,3.94-5.54,3.94c-4.07,0-5.09-1.49-5.09-3.85h3.05c0,1.09,0.36,1.61,2.06,1.61c1.63,0,2.1-0.61,2.1-1.45
c0-0.86-0.5-1.31-1.58-1.31h-1.13c-2.47,0-3.42-0.99-3.42-2.33c0-0.93,0.54-1.72,1.29-2.24c-1.31-0.79-1.9-1.81-1.9-3.44
c0-2.74,1.85-4.37,4.82-4.34c2.24,0.02,3.48-0.7,4.73-1.45L587.27,173.4z M580.26,176.7c0,1.47,0.54,2.1,1.43,2.1
c0.93,0,1.42-0.57,1.42-2.17c0-1.47-0.5-2.01-1.4-2.01C580.78,174.62,580.26,175.23,580.26,176.7z"/>
<path class="st5" d="M10.03,24.9c-0.91,0.63-2.17,0.95-3.26,0.95c-2.65-0.02-3.94-1.52-3.94-4.34v-5.56h-1.7v-2.49h1.7v-2.6
l3.57-0.41v3.01h2.76l-0.38,2.49H6.41v5.52c0,1.15,0.38,1.56,1.13,1.56c0.41,0,0.81-0.11,1.29-0.41L10.03,24.9z"/>
<path class="st5" d="M21.59,16.69v8.78h-3.57V17.3c0-1.27-0.45-1.61-1.13-1.61c-0.79,0-1.45,0.56-2.08,1.54v8.23h-3.57V8.69
l3.57-0.36v6.4c0.97-1.09,2.06-1.65,3.46-1.65C20.35,13.07,21.59,14.41,21.59,16.69z"/>
<path class="st5" d="M34.7,20.52h-7.42c0.23,2.15,1.24,2.74,2.71,2.74c0.97,0,1.83-0.34,2.87-1.06l1.47,1.99
c-1.2,0.95-2.74,1.67-4.68,1.67c-4,0-6.04-2.58-6.04-6.33c0-3.6,1.97-6.45,5.61-6.45c3.44,0,5.54,2.26,5.54,6.15
C34.76,19.61,34.74,20.15,34.7,20.52z M31.26,18.21c-0.02-1.63-0.52-2.76-1.94-2.76c-1.2,0-1.88,0.75-2.06,2.92h4V18.21z"/>
<path class="st5" d="M47.91,19.48c0,3.84-2.22,6.38-5.88,6.38c-3.64,0-5.88-2.35-5.88-6.4c0-3.84,2.22-6.38,5.88-6.38
C45.7,13.07,47.91,15.43,47.91,19.48z M39.86,19.45c0,2.67,0.72,3.78,2.17,3.78s2.17-1.15,2.17-3.76c0-2.67-0.72-3.78-2.17-3.78
S39.86,16.85,39.86,19.45z"/>
<path class="st5" d="M57.76,13.28l-0.57,3.46c-0.38-0.09-0.68-0.16-1.09-0.16c-1.47,0-2.1,1.09-2.49,2.9v5.99h-3.57V13.46h3.12
l0.29,2.31c0.54-1.65,1.72-2.65,3.1-2.65C57.01,13.12,57.37,13.17,57.76,13.28z"/>
<path class="st5" d="M69.3,20.52h-7.42c0.23,2.15,1.24,2.74,2.71,2.74c0.97,0,1.83-0.34,2.87-1.06l1.47,1.99
c-1.2,0.95-2.74,1.67-4.68,1.67c-4,0-6.04-2.58-6.04-6.33c0-3.6,1.97-6.45,5.61-6.45c3.44,0,5.54,2.26,5.54,6.15
C69.37,19.61,69.34,20.15,69.3,20.52z M65.86,18.21c-0.02-1.63-0.52-2.76-1.94-2.76c-1.2,0-1.88,0.75-2.06,2.92h4V18.21z"/>
<path class="st5" d="M78.96,24.9c-0.91,0.63-2.17,0.95-3.26,0.95c-2.65-0.02-3.94-1.52-3.94-4.34v-5.56h-1.7v-2.49h1.7v-2.6
l3.57-0.41v3.01h2.76l-0.38,2.49h-2.37v5.52c0,1.15,0.38,1.56,1.13,1.56c0.41,0,0.81-0.11,1.29-0.41L78.96,24.9z"/>
<path class="st5" d="M84.06,9.16c0,1.15-0.88,2.04-2.13,2.04c-1.24,0-2.1-0.88-2.1-2.04s0.86-2.04,2.1-2.04
C83.18,7.13,84.06,8.01,84.06,9.16z M83.74,25.47h-3.57V13.46h3.57V25.47z"/>
<path class="st5" d="M95.87,14.55l-1.54,2.13c-0.77-0.59-1.47-0.86-2.28-0.86c-1.54,0-2.42,1.04-2.42,3.73
c0,2.67,0.95,3.48,2.37,3.48c0.86,0,1.45-0.27,2.31-0.81l1.56,2.22c-1.11,0.88-2.4,1.43-4.05,1.43c-3.69,0-5.95-2.49-5.95-6.29
c0-3.82,2.28-6.49,5.88-6.49C93.43,13.07,94.72,13.57,95.87,14.55z"/>
<path class="st5" d="M107.75,23.46L107,25.79c-1.4-0.11-2.33-0.54-2.9-1.72c-0.86,1.31-2.19,1.79-3.62,1.79
c-2.4,0-3.91-1.56-3.91-3.76c0-2.62,1.99-4.05,5.63-4.05h1.22v-0.52c0-1.42-0.56-1.85-2.04-1.85c-0.77,0-1.94,0.23-3.14,0.63
l-0.81-2.35c1.52-0.56,3.17-0.88,4.52-0.88c3.48,0,4.98,1.47,4.98,4.25v4.66C106.94,22.91,107.19,23.25,107.75,23.46z
M103.43,22.17v-2.15h-0.88c-1.63,0-2.42,0.57-2.42,1.76c0,0.95,0.52,1.52,1.4,1.52C102.35,23.3,103,22.87,103.43,22.17z"/>
<path class="st5" d="M109.68,22.42V8.69l3.57-0.38v13.98c0,0.5,0.18,0.75,0.61,0.75c0.25,0,0.43-0.05,0.59-0.11l0.7,2.53
c-0.54,0.23-1.31,0.41-2.17,0.41C110.9,25.85,109.68,24.61,109.68,22.42z"/>
<path class="st5" d="M27.15,46.59c0,3.71-1.81,6.42-4.77,6.42c-1.18,0-2.17-0.41-2.92-1.27v5.52l-3.57,0.38V40.62h3.14l0.18,1.33
c1-1.24,2.28-1.72,3.39-1.72C25.77,40.23,27.15,42.7,27.15,46.59z M23.44,46.64c0-2.99-0.72-3.78-1.97-3.78
c-0.77,0-1.49,0.52-2.01,1.4v5.07c0.5,0.72,1.09,1.06,1.83,1.06C22.62,50.39,23.44,49.33,23.44,46.64z"/>
<path class="st5" d="M37.11,40.44l-0.57,3.46c-0.38-0.09-0.68-0.16-1.09-0.16c-1.47,0-2.1,1.09-2.49,2.9v5.99h-3.57V40.62h3.12
l0.29,2.31c0.54-1.65,1.72-2.65,3.1-2.65C36.36,40.28,36.72,40.32,37.11,40.44z"/>
<path class="st5" d="M49.33,46.64c0,3.84-2.22,6.38-5.88,6.38c-3.64,0-5.88-2.35-5.88-6.4c0-3.84,2.22-6.38,5.88-6.38
C47.11,40.23,49.33,42.59,49.33,46.64z M41.27,46.61c0,2.67,0.72,3.78,2.17,3.78s2.17-1.15,2.17-3.76c0-2.67-0.72-3.78-2.17-3.78
S41.27,44.01,41.27,46.61z"/>
<path class="st5" d="M62.72,46.64c0,3.71-1.79,6.38-4.77,6.38c-1.33,0-2.42-0.57-3.15-1.54l-0.18,1.15h-3.17V35.84l3.57-0.38v6.38
c0.7-0.97,1.92-1.61,3.17-1.61C61.16,40.23,62.72,42.61,62.72,46.64z M59.01,46.64c0-3.05-0.81-3.78-1.92-3.78
c-0.86,0-1.54,0.52-2.06,1.4v4.98c0.45,0.75,1.11,1.18,1.9,1.18C58.15,50.41,59.01,49.44,59.01,46.64z"/>
<path class="st5" d="M64.86,49.58V35.84l3.57-0.38v13.98c0,0.5,0.18,0.75,0.61,0.75c0.25,0,0.43-0.05,0.59-0.11l0.7,2.53
c-0.54,0.23-1.31,0.41-2.17,0.41C66.08,53.01,64.86,51.77,64.86,49.58z"/>
<path class="st5" d="M81.87,47.68h-7.42c0.23,2.15,1.24,2.74,2.71,2.74c0.97,0,1.83-0.34,2.87-1.06l1.47,1.99
c-1.2,0.95-2.74,1.67-4.68,1.67c-4,0-6.04-2.58-6.04-6.33c0-3.6,1.97-6.45,5.61-6.45c3.44,0,5.54,2.26,5.54,6.15
C81.94,46.77,81.92,47.31,81.87,47.68z M78.43,45.37c-0.02-1.63-0.52-2.76-1.94-2.76c-1.2,0-1.88,0.75-2.06,2.92h4V45.37z"/>
<path class="st5" d="M100.43,43.85v8.78h-3.57v-8.17c0-1.27-0.48-1.61-1.02-1.61c-0.77,0-1.31,0.56-1.83,1.56v8.21h-3.57v-8.17
c0-1.27-0.48-1.61-1.02-1.61c-0.75,0-1.31,0.56-1.83,1.56v8.21H84V40.62h3.12l0.25,1.4c0.93-1.18,2.01-1.79,3.48-1.79
c1.33,0,2.35,0.68,2.83,1.9c0.95-1.24,2.06-1.9,3.6-1.9C99.14,40.23,100.43,41.57,100.43,43.85z"/>
<path class="st5" d="M23.53,165.16c0,3.71-1.81,6.43-4.77,6.43c-1.18,0-2.17-0.41-2.92-1.27v5.52l-3.57,0.38v-17.03h3.14
l0.18,1.33c1-1.24,2.28-1.72,3.39-1.72C22.15,158.81,23.53,161.27,23.53,165.16z M19.82,165.21c0-2.99-0.72-3.78-1.97-3.78
c-0.77,0-1.49,0.52-2.01,1.4v5.07c0.5,0.72,1.09,1.06,1.83,1.06C19,168.97,19.82,167.9,19.82,165.21z"/>
<path class="st5" d="M33.94,159.01l-0.57,3.46c-0.38-0.09-0.68-0.16-1.09-0.16c-1.47,0-2.1,1.09-2.49,2.9v5.99h-3.57v-12.01h3.12
l0.29,2.31c0.54-1.65,1.72-2.65,3.1-2.65C33.19,158.85,33.55,158.9,33.94,159.01z"/>
<path class="st5" d="M45.66,169.19l-0.75,2.33c-1.4-0.11-2.33-0.54-2.9-1.72c-0.86,1.31-2.19,1.79-3.62,1.79
c-2.4,0-3.91-1.56-3.91-3.76c0-2.62,1.99-4.05,5.63-4.05h1.22v-0.52c0-1.42-0.56-1.85-2.04-1.85c-0.77,0-1.94,0.23-3.14,0.63
l-0.81-2.35c1.52-0.56,3.17-0.88,4.52-0.88c3.48,0,4.98,1.47,4.98,4.25v4.66C44.85,168.65,45.09,168.99,45.66,169.19z
M41.34,167.9v-2.15h-0.88c-1.63,0-2.42,0.57-2.42,1.77c0,0.95,0.52,1.51,1.4,1.51C40.25,169.03,40.91,168.6,41.34,167.9z"/>
<path class="st5" d="M57.48,160.28l-1.54,2.13c-0.77-0.59-1.47-0.86-2.28-0.86c-1.54,0-2.42,1.04-2.42,3.73
c0,2.67,0.95,3.48,2.37,3.48c0.86,0,1.45-0.27,2.31-0.81l1.56,2.22c-1.11,0.88-2.4,1.43-4.05,1.43c-3.69,0-5.95-2.49-5.95-6.29
c0-3.82,2.28-6.49,5.88-6.49C55.03,158.81,56.32,159.31,57.48,160.28z"/>
<path class="st5" d="M66.98,170.64c-0.91,0.63-2.17,0.95-3.26,0.95c-2.65-0.02-3.94-1.52-3.94-4.34v-5.56h-1.7v-2.49h1.7v-2.6
l3.57-0.41v3.01h2.76l-0.38,2.49h-2.37v5.52c0,1.15,0.38,1.56,1.13,1.56c0.41,0,0.81-0.11,1.29-0.41L66.98,170.64z"/>
<path class="st5" d="M72.53,154.9c0,1.15-0.88,2.04-2.13,2.04c-1.24,0-2.1-0.88-2.1-2.04c0-1.15,0.86-2.04,2.1-2.04
C71.65,152.86,72.53,153.74,72.53,154.9z M72.21,171.2h-3.57v-12.01h3.57V171.2z"/>
<path class="st5" d="M84.79,160.28l-1.54,2.13c-0.77-0.59-1.47-0.86-2.28-0.86c-1.54,0-2.42,1.04-2.42,3.73
c0,2.67,0.95,3.48,2.37,3.48c0.86,0,1.45-0.27,2.31-0.81l1.56,2.22c-1.11,0.88-2.4,1.43-4.05,1.43c-3.69,0-5.95-2.49-5.95-6.29
c0-3.82,2.28-6.49,5.88-6.49C82.35,158.81,83.64,159.31,84.79,160.28z"/>
<path class="st5" d="M97.13,169.19l-0.75,2.33c-1.4-0.11-2.33-0.54-2.9-1.72c-0.86,1.31-2.19,1.79-3.62,1.79
c-2.4,0-3.91-1.56-3.91-3.76c0-2.62,1.99-4.05,5.63-4.05h1.22v-0.52c0-1.42-0.57-1.85-2.04-1.85c-0.77,0-1.94,0.23-3.14,0.63
l-0.81-2.35c1.52-0.56,3.17-0.88,4.52-0.88c3.48,0,4.98,1.47,4.98,4.25v4.66C96.31,168.65,96.56,168.99,97.13,169.19z
M92.81,167.9v-2.15h-0.88c-1.63,0-2.42,0.57-2.42,1.77c0,0.95,0.52,1.51,1.4,1.51C91.72,169.03,92.38,168.6,92.81,167.9z"/>
<path class="st5" d="M99.51,168.15v-13.73l3.57-0.38v13.98c0,0.5,0.18,0.74,0.61,0.74c0.25,0,0.43-0.04,0.59-0.11l0.7,2.54
c-0.54,0.23-1.31,0.41-2.17,0.41C100.73,171.59,99.51,170.34,99.51,168.15z"/>
<path class="st5" d="M26.94,192.32c0,3.71-1.81,6.43-4.77,6.43c-1.18,0-2.17-0.41-2.92-1.27V203l-3.57,0.38v-17.03h3.14l0.18,1.33
c1-1.24,2.28-1.72,3.39-1.72C25.56,185.97,26.94,188.43,26.94,192.32z M23.23,192.37c0-2.99-0.72-3.78-1.97-3.78
c-0.77,0-1.49,0.52-2.01,1.4v5.07c0.5,0.72,1.09,1.06,1.83,1.06C22.42,196.12,23.23,195.06,23.23,192.37z"/>
<path class="st5" d="M36.9,186.17l-0.57,3.46c-0.38-0.09-0.68-0.16-1.09-0.16c-1.47,0-2.1,1.09-2.49,2.9v5.99h-3.57v-12.01h3.12
l0.29,2.31c0.54-1.65,1.72-2.65,3.1-2.65C36.16,186.01,36.52,186.06,36.9,186.17z"/>
<path class="st5" d="M49.12,192.37c0,3.84-2.22,6.38-5.88,6.38c-3.64,0-5.88-2.35-5.88-6.4c0-3.84,2.22-6.38,5.88-6.38
S49.12,188.32,49.12,192.37z M41.07,192.34c0,2.67,0.72,3.78,2.17,3.78s2.17-1.15,2.17-3.76c0-2.67-0.72-3.78-2.17-3.78
S41.07,189.74,41.07,192.34z"/>
<path class="st5" d="M62.52,192.37c0,3.71-1.79,6.38-4.77,6.38c-1.33,0-2.42-0.57-3.15-1.54l-0.18,1.15h-3.17v-16.78l3.57-0.38
v6.38c0.7-0.97,1.92-1.61,3.17-1.61C60.96,185.97,62.52,188.34,62.52,192.37z M58.81,192.37c0-3.05-0.81-3.78-1.92-3.78
c-0.86,0-1.54,0.52-2.06,1.4v4.98c0.45,0.74,1.11,1.18,1.9,1.18C57.95,196.15,58.81,195.17,58.81,192.37z"/>
<path class="st5" d="M64.65,195.31v-13.73l3.57-0.38v13.98c0,0.5,0.18,0.74,0.61,0.74c0.25,0,0.43-0.04,0.59-0.11l0.7,2.54
c-0.54,0.23-1.31,0.41-2.17,0.41C65.87,198.75,64.65,197.5,64.65,195.31z"/>
<path class="st5" d="M81.67,193.41h-7.42c0.23,2.15,1.24,2.74,2.71,2.74c0.97,0,1.83-0.34,2.87-1.06l1.47,1.99
c-1.2,0.95-2.74,1.68-4.68,1.68c-4,0-6.04-2.58-6.04-6.33c0-3.6,1.97-6.45,5.61-6.45c3.44,0,5.54,2.26,5.54,6.15
C81.74,192.5,81.71,193.05,81.67,193.41z M78.23,191.1c-0.02-1.63-0.52-2.76-1.94-2.76c-1.2,0-1.88,0.75-2.06,2.92h4V191.1z"/>
<path class="st5" d="M100.22,189.59v8.78h-3.57v-8.17c0-1.27-0.48-1.6-1.02-1.6c-0.77,0-1.31,0.56-1.83,1.56v8.21h-3.57v-8.17
c0-1.27-0.48-1.6-1.02-1.6c-0.75,0-1.31,0.56-1.83,1.56v8.21H83.8v-12.01h3.12l0.25,1.4c0.93-1.18,2.01-1.79,3.48-1.79
c1.33,0,2.35,0.68,2.83,1.9c0.95-1.24,2.06-1.9,3.6-1.9C98.93,185.97,100.22,187.3,100.22,189.59z"/>
</svg>
